<mxfile host="app.diagrams.net" modified="2023-05-26T04:09:44.244Z" agent="Mozilla/5.0 (Windows NT 10.0; Win64; x64) AppleWebKit/537.36 (KHTML, like Gecko) Chrome/113.0.0.0 Safari/537.36" version="21.3.4" etag="2InUdmjwl_jMjUJ6A-nx" type="github">
  <diagram name="Halaman-1" id="t-li1E6kkIOADNPBmkhb">
    <mxGraphModel>
      <root>
        <mxCell id="0" />
        <mxCell id="1" parent="0" />
      </root>
    </mxGraphModel>
  </diagram>
</mxfile>
